<svg width="156" height="31" viewBox="0 0 156 31" fill="none" xmlns="http://www.w3.org/2000/svg">
<path d="M17.5328 12.3562H5.947V0.599187H0.719238V29.6934H5.947V17.5504H17.5328V29.6583H22.7606V0.599187H17.5328V12.3562ZM44.802 0.17804C36.5011 0.17804 29.7898 6.8462 29.7898 15.0937C29.7898 23.3411 36.5011 30.0093 44.802 30.0093C53.1028 30.0093 59.8141 23.3411 59.8141 15.0937C59.8141 6.8813 53.1028 0.17804 44.802 0.17804ZM44.802 24.8502C39.3976 24.8502 34.9823 20.4984 34.9823 15.0937C34.9823 9.72404 39.3623 5.33709 44.802 5.33709C50.2417 5.33709 54.6217 9.68894 54.6217 15.0937C54.6217 20.4984 50.2417 24.8502 44.802 24.8502ZM110.961 0.17804C102.661 0.17804 95.9493 6.8462 95.9493 15.0937C95.9493 23.3411 102.661 30.0093 110.961 30.0093C119.262 30.0093 125.974 23.3411 125.974 15.0937C125.974 6.8813 119.262 0.17804 110.961 0.17804ZM110.961 24.8502C105.557 24.8502 101.142 20.4984 101.142 15.0937C101.142 9.72404 105.522 5.33709 110.961 5.33709C116.366 5.33709 120.781 9.68894 120.781 15.0937C120.746 20.4984 116.366 24.8502 110.961 24.8502ZM146.955 19.0595C150.805 17.8311 153.596 14.2514 153.596 10.0399C153.596 4.81066 149.357 0.599187 144.094 0.564091H133.003V29.6583H138.231V16.7432L149.11 29.6934H155.892L146.955 19.0595ZM144.023 14.3216H138.231V5.75824H144.023C146.39 5.75824 148.333 7.68849 148.333 10.0399C148.333 12.4264 146.425 14.3216 144.023 14.3216ZM83.6923 18.6383L71.0114 0.4939H66.8433V29.5881H72.0711V11.3384L84.7873 29.5881H88.8847V0.4939H83.657V18.6383H83.6923Z" fill="black"/>
</svg>
